<?xml version="1.0" standalone="no"?>
<!DOCTYPE svg PUBLIC "-//W3C//DTD SVG 20010904//EN"
 "http://www.w3.org/TR/2001/REC-SVG-20010904/DTD/svg10.dtd">
<svg version="1.0" xmlns="http://www.w3.org/2000/svg"
 width="768.000000pt" height="768.000000pt" viewBox="0 0 768.000000 768.000000"
 preserveAspectRatio="xMidYMid meet">
<metadata>
Created by potrace 1.11, written by Peter Selinger 2001-2013
</metadata>
<g transform="translate(0.000000,768.000000) scale(0.100000,-0.100000)"
fill="#000000" stroke="none">
<path d="M3728 7563 c-1 -5 -41 -39 -88 -78 -47 -38 -87 -72 -90 -75 -3 -3
-26 -22 -52 -43 -26 -21 -53 -43 -60 -50 -7 -7 -34 -29 -60 -50 -26 -21 -53
-43 -60 -50 -7 -7 -35 -30 -62 -52 -27 -21 -60 -48 -72 -60 -12 -11 -37 -31
-54 -45 -17 -14 -40 -32 -49 -40 -57 -48 -104 -87 -121 -100 -10 -8 -40 -33
-66 -56 -27 -23 -121 -101 -209 -174 -88 -73 -161 -137 -163 -142 -2 -4 -10
-8 -18 -8 -8 0 -14 -4 -14 -8 0 -4 -21 -24 -47 -45 -27 -20 -62 -49 -80 -64
-17 -16 -48 -41 -69 -58 -20 -16 -42 -35 -48 -40 -6 -6 -54 -46 -106 -89 -52
-44 -96 -83 -98 -88 -2 -4 -8 -8 -13 -8 -8 0 -34 -20 -83 -65 -6 -6 -36 -31
-66 -56 -119 -97 -235 -194 -240 -199 -3 -3 -32 -27 -65 -55 -33 -27 -61 -53
-63 -57 -2 -5 -8 -8 -13 -8 -5 0 -17 -8 -28 -17 -32 -31 -74 -67 -131 -113
-30 -25 -60 -49 -66 -55 -6 -5 -27 -23 -48 -40 -21 -16 -48 -39 -60 -50 -12
-11 -42 -36 -66 -55 -24 -19 -55 -45 -69 -56 l-26 -22 0 -303 -1 -304 31 -30
c17 -16 53 -48 80 -70 26 -22 58 -49 71 -60 12 -11 37 -32 55 -47 19 -14 50
-40 69 -56 19 -16 82 -68 140 -116 58 -48 125 -104 149 -124 24 -20 55 -46 68
-57 14 -11 35 -29 48 -40 13 -11 43 -36 66 -55 24 -19 129 -106 233 -194 105
-87 211 -175 235 -195 24 -20 52 -43 63 -53 10 -9 37 -31 58 -48 21 -17 49
-41 62 -52 34 -29 57 -48 118 -98 30 -25 65 -55 78 -67 13 -13 26 -23 30 -23
4 0 23 -15 42 -33 19 -18 60 -52 90 -77 30 -25 60 -49 66 -55 6 -5 30 -26 54
-45 24 -19 48 -40 54 -45 6 -6 40 -34 76 -63 36 -29 74 -61 85 -70 111 -93
167 -140 204 -171 24 -20 54 -45 67 -56 12 -12 37 -32 54 -45 18 -14 42 -33
54 -43 11 -11 38 -33 59 -50 48 -39 75 -62 107 -90 14 -12 38 -32 53 -44 28
-22 28 -22 48 -2 10 10 19 22 19 25 0 3 6 11 13 18 18 19 56 63 107 126 25 30
55 66 66 80 23 26 191 228 226 270 11 14 30 35 41 48 l21 23 -36 32 c-56 50
-77 67 -163 137 -44 35 -86 70 -93 77 -7 7 -34 29 -60 50 -26 21 -49 40 -52
43 -3 3 -30 25 -60 49 -30 25 -59 49 -65 55 -5 6 -31 28 -57 49 -26 21 -53 43
-60 50 -7 7 -36 30 -63 52 -28 21 -52 42 -55 45 -8 8 -72 62 -120 100 -24 19
-54 44 -66 55 -12 12 -37 32 -55 45 -18 14 -37 30 -43 35 -6 6 -51 45 -101 86
-49 41 -101 84 -115 96 -29 25 -147 122 -209 173 -23 19 -53 43 -64 53 -12 11
-42 35 -66 55 -25 21 -77 64 -116 97 -39 33 -90 76 -114 95 -24 19 -53 43 -64
53 -12 11 -39 33 -60 50 -22 18 -49 40 -60 50 -12 11 -42 35 -66 55 -115 95
-239 199 -265 223 l-28 26 73 59 c41 32 81 66 89 74 8 8 51 44 95 80 44 35 85
69 91 75 6 5 30 26 54 45 24 19 48 40 54 45 6 6 90 75 186 155 96 80 180 149
186 155 6 5 30 26 54 45 24 19 48 40 54 45 6 6 76 64 156 130 80 66 147 122
150 125 3 3 25 21 50 41 25 20 56 47 70 58 39 35 57 50 180 150 63 52 117 97
120 101 3 3 41 35 85 70 44 36 96 80 115 97 19 18 38 33 41 33 3 0 22 15 41
33 20 17 44 39 54 47 74 59 191 155 199 165 6 6 33 28 60 50 28 22 66 54 85
72 35 32 35 32 15 52 -32 33 -46 49 -150 176 -330 400 -354 426 -367 398z"/>
<path d="M3930 5258 c-33 -41 -84 -102 -90 -108 -3 -3 -25 -30 -49 -60 -25
-30 -49 -59 -55 -65 -6 -5 -36 -41 -67 -80 -31 -38 -66 -81 -79 -95 -12 -14
-34 -40 -48 -59 -15 -18 -42 -50 -59 -70 -18 -20 -33 -39 -33 -42 0 -3 19 -22
43 -41 23 -20 61 -51 84 -71 23 -19 49 -42 58 -51 9 -9 19 -16 23 -16 4 0 23
-15 42 -33 19 -18 73 -64 120 -102 47 -38 87 -72 90 -75 3 -3 43 -37 90 -75
47 -38 87 -72 90 -75 3 -3 17 -15 32 -26 15 -12 51 -41 80 -66 65 -55 186
-157 212 -178 10 -8 37 -31 60 -50 23 -19 64 -53 91 -75 61 -50 118 -98 125
-105 3 -3 30 -25 60 -50 30 -25 57 -47 60 -50 3 -3 25 -21 50 -41 25 -20 55
-45 67 -55 11 -11 40 -35 64 -54 24 -19 53 -45 66 -57 12 -13 26 -23 30 -23 4
0 29 -20 54 -43 26 -23 66 -58 90 -77 23 -19 47 -40 53 -45 9 -8 151 -125 191
-157 30 -25 63 -53 90 -76 17 -15 53 -45 80 -66 28 -22 57 -47 66 -55 17 -18
83 -71 102 -83 13 -8 6 -15 -145 -141 -15 -12 -40 -33 -56 -47 -16 -14 -48
-41 -72 -60 -78 -63 -364 -301 -401 -333 -20 -18 -56 -48 -80 -67 -66 -53
-241 -198 -269 -223 -14 -13 -77 -65 -140 -117 -63 -52 -117 -97 -120 -100 -3
-3 -27 -24 -55 -45 -27 -22 -52 -43 -55 -46 -3 -3 -77 -65 -165 -138 -88 -73
-171 -142 -185 -154 -14 -12 -63 -54 -110 -92 -47 -38 -87 -72 -90 -75 -3 -3
-30 -25 -60 -50 -30 -25 -57 -47 -60 -50 -3 -3 -30 -25 -60 -50 -30 -25 -57
-47 -60 -50 -3 -3 -44 -38 -92 -78 -84 -69 -98 -86 -80 -94 6 -2 127 -144 167
-196 6 -7 22 -25 36 -41 14 -16 39 -46 55 -66 36 -46 59 -74 82 -100 10 -11
48 -57 86 -102 37 -46 72 -83 78 -83 5 0 15 6 23 13 7 6 32 28 55 47 23 19 47
40 54 45 20 18 141 119 186 155 24 19 53 44 66 55 13 11 36 30 51 42 15 12 37
30 48 40 11 10 45 38 75 63 30 25 60 49 66 55 16 14 45 38 144 120 47 38 87
72 90 75 3 3 28 23 55 45 28 22 55 44 60 50 8 10 53 47 198 165 10 8 29 24 41
35 12 11 42 36 66 55 24 19 48 40 54 45 6 6 34 28 61 50 28 22 55 45 60 51 6
6 32 28 60 50 69 54 82 65 118 97 18 16 63 54 102 85 38 31 77 64 86 72 34 30
165 139 288 240 24 19 53 43 65 54 11 10 41 35 66 55 25 20 47 38 50 41 9 10
181 153 239 199 31 25 61 50 66 56 6 6 30 27 55 46 24 19 56 44 69 57 l26 24
0 301 1 302 -36 35 c-29 29 -119 105 -213 180 -11 8 -24 20 -31 25 -6 6 -41
35 -76 65 -36 30 -70 59 -76 65 -6 5 -26 21 -44 35 -18 14 -38 30 -44 35 -11
10 -171 144 -209 175 -10 8 -28 23 -40 33 -12 11 -40 34 -62 52 -76 63 -560
467 -605 505 -25 21 -90 75 -145 120 -55 45 -120 99 -145 120 -211 177 -255
215 -258 222 -2 4 -8 8 -13 8 -8 0 -40 26 -96 78 -13 12 -26 22 -29 22 -4 0
-41 31 -93 79 -14 13 -42 35 -61 50 -19 14 -45 35 -57 46 -12 11 -38 34 -58
50 -20 17 -42 35 -49 40 -6 6 -54 46 -106 89 -52 43 -117 97 -143 120 -27 22
-51 42 -55 43 -4 1 -18 -12 -32 -29z"/>
</g>
</svg>
